<?xml version="1.0" encoding="UTF-8" standalone="no"?>
<!-- Generator: Adobe Illustrator 24.0.0, SVG Export Plug-In . SVG Version: 6.00 Build 0)  -->

<svg
   xmlns:dc="http://purl.org/dc/elements/1.1/"
   xmlns:cc="http://creativecommons.org/ns#"
   xmlns:rdf="http://www.w3.org/1999/02/22-rdf-syntax-ns#"
   xmlns:svg="http://www.w3.org/2000/svg"
   xmlns="http://www.w3.org/2000/svg"
   xmlns:sodipodi="http://sodipodi.sourceforge.net/DTD/sodipodi-0.dtd"
   xmlns:inkscape="http://www.inkscape.org/namespaces/inkscape"
   version="1.1"
   id="Capa_1"
   x="0px"
   y="0px"
   viewBox="0 0 32 32"
   style="enable-background:new 0 0 32 32;"
   xml:space="preserve"
   sodipodi:docname="logo 32x32 favicon negro.svg"
   inkscape:export-filename="/home/developer/QuBitDev/webs/portafoloio-sain-blanco/images/logo.png"
   inkscape:export-xdpi="450"
   inkscape:export-ydpi="450"
   inkscape:version="0.92.3 (2405546, 2018-03-11)"><metadata
   id="metadata31"><rdf:RDF><cc:Work
       rdf:about=""><dc:format>image/svg+xml</dc:format><dc:type
         rdf:resource="http://purl.org/dc/dcmitype/StillImage" /></cc:Work></rdf:RDF></metadata><defs
   id="defs29" /><sodipodi:namedview
   pagecolor="#ffffff"
   bordercolor="#666666"
   borderopacity="1"
   objecttolerance="10"
   gridtolerance="10"
   guidetolerance="10"
   inkscape:pageopacity="0"
   inkscape:pageshadow="2"
   inkscape:window-width="1920"
   inkscape:window-height="1017"
   id="namedview27"
   showgrid="false"
   inkscape:zoom="7.375"
   inkscape:cx="-3.8644068"
   inkscape:cy="10.576271"
   inkscape:window-x="0"
   inkscape:window-y="30"
   inkscape:window-maximized="1"
   inkscape:current-layer="Capa_1" />
<style
   type="text/css"
   id="style2">
	.st0{fill:#303030;}
</style>
<g
   id="g24">
	<polygon
   class="st0"
   points="12.43,6.46 15.32,4.67 22.74,9.42 22.74,13.24 15.38,8.96 12.43,10.65  "
   id="polygon4" />
	<polygon
   class="st0"
   points="11.89,6.81 11.89,11.73 22.58,17.92 19.04,20.01 8.19,13.69 8.19,9.19  "
   id="polygon6" />
	<polygon
   points="22.97,18.86 15.34,23.01 8.19,18.84 8.19,22.58 15.38,26.86 22.98,22.65  "
   id="polygon8" />
	<polygon
   class="st0"
   points="15.38,26.86 8.19,22.58 8.19,18.84 15.34,23.01  "
   id="polygon10" />
	<polygon
   points="11.89,11.73 8.19,13.7 8.19,9.19 11.89,6.81  "
   id="polygon12" />
	<polygon
   points="22.74,13.24 15.38,8.96 15.38,4.67 22.74,9.42  "
   id="polygon14" />
	<path
   class="st0"
   d="M14.2,30.35c0,0,0.23-0.23,0.08-0.44l-9.78-5.46c0,0-0.45-0.31-0.21-0.82c0.24-0.5,1.83-3.31,1.83-3.31   s0.36-0.77-0.52,0.06l-4.85,4.39c0,0-1.43,0.82,0.12,1.55C0.86,26.32,14.42,30.41,14.2,30.35z"
   id="path16" />
	<path
   class="st0"
   d="M17.77,1.99c0,0-0.13,0.04-0.18,0.13c-0.05,0.08-0.03,0.19,0.04,0.29l9.71,5.59c0,0,0.44,0.32,0.2,0.82   c-0.24,0.5-1.87,3.29-1.87,3.29s-0.37,0.76,0.52-0.05l4.91-4.32c0,0,1.44-0.8-0.1-1.55C31,6.18,17.55,1.92,17.77,1.99z"
   id="path18" />
	<path
   d="M17.81,1.99l13.08,4.14c0,0,1.97,0.58-0.15,1.92"
   id="path20" />
	<path
   d="M14.2,30.35L0.97,26.37c0,0-1.95-0.57,0.15-1.94"
   id="path22" />
</g>
</svg>